<svg id="Layer_1" data-name="Layer 1" xmlns="http://www.w3.org/2000/svg" xmlns:xlink="http://www.w3.org/1999/xlink" width="996.49" height="996"><defs><linearGradient id="linear-gradient" x1="421.6" y1="519.14" x2="580.14" y2="519.14" gradientUnits="userSpaceOnUse"><stop offset="0" stop-color="#fff"/><stop offset="1"/></linearGradient><linearGradient id="linear-gradient-2" x1="429.78" y1="519.14" x2="571.95" y2="519.14" xlink:href="#linear-gradient"/><linearGradient id="linear-gradient-3" x1="436.6" y1="520.17" x2="564.45" y2="520.17" xlink:href="#linear-gradient"/><linearGradient id="linear-gradient-4" x1="444.1" y1="518.8" x2="556.95" y2="518.8" xlink:href="#linear-gradient"/><style>.cls-1{fill:#fff}.cls-2{fill:none}.cls-2{stroke:#232326;stroke-width:2px}.cls-2{stroke-miterlimit:10}</style></defs><ellipse class="cls-1" cx="499.42" cy="496.07" rx="498.25" ry="498"/><ellipse class="cls-2" cx="771.77" cy="221.76" rx="43.7" ry="75.59" transform="rotate(-51.45 771.78 221.757)"/><ellipse class="cls-2" cx="762.98" cy="232.53" rx="85.67" ry="148.13" transform="rotate(-45.01 763.061 232.512)"/><ellipse class="cls-2" cx="746.06" cy="247.47" rx="126.39" ry="215.79" transform="rotate(-45.01 746.149 247.464)"/><ellipse cx="774.57" cy="218.71" rx="14.73" ry="32.97" transform="rotate(-45.01 774.58 218.705)" style="fill:#f9f9f9;stroke-miterlimit:10;stroke:#232326;stroke-width:2px"/><ellipse class="cls-2" cx="498.61" cy="498.07" rx="498.13" ry="498"/><path class="cls-2" d="M128.79 831.69c128.31-178.27 645.78-613 645.78-613s-319.2 524.17-576.15 676.8"/><path class="cls-2" d="M275.34 943.33c441.48-198.49 499.23-724.62 499.23-724.62s71.53 600.54-399.88 761.83"/><path class="cls-2" d="M511.69 996.07c480-260.28 262.88-777.36 262.88-777.36S1064 677 667.62 966.66"/><path class="cls-2" d="M828.46 871.23c241.33-357.36-53.89-652.52-53.89-652.52S1027.39 418 954.78 698.38"/><path class="cls-2" d="M996.73 508.68c-38.18-192.41-222.16-290-222.16-290S906 263.35 980.86 372.9"/><path class="cls-2" d="M956.21 301c-78.71-80.79-181.64-82.32-181.64-82.32S848 197.35 908.46 215"/><path class="cls-2" d="M865.39 161.13c-30.68 1.42-90.82 57.58-90.82 57.58s35.57-83.83 35.14-109.59M746.06 65.77c30.51 17.12 28.51 152.94 28.51 152.94S724.74 52 694.11 39.9"/><path class="cls-2" d="M589.84 8.42c86 32.65 184.73 210.29 184.73 210.29S661.79 15.36 417 7"/><path class="cls-2" d="M306 38.25c368.63 8.59 468.62 180.46 468.62 180.46S437.69-52.35 108 189"/><path class="cls-2" d="M8.76 407.27C273.92-49.66 774.57 218.71 774.57 218.71S196.21 64.31 4 565.75"/><path class="cls-2" d="M34.17 678.47c148.25-477.24 740.4-459.76 740.4-459.76S265.48 357.12 79.18 766.83"/><ellipse class="cls-2" cx="726.52" cy="264.18" rx="171.72" ry="282.76" transform="rotate(-43.24 726.425 264.185)"/><path class="cls-2" d="M850.94 145.83c133.18 132.17 155.24 321.1 76.87 394.73S681.72 563 553.21 426.31 382.17 117 462.42 45.43c77.58-69.2 258.63-28.52 388.52 100.4Z"/><path class="cls-2" d="M493.4.07C476.53 3.2 392 20.56 358 90.3c-15.39 31.65-14.61 62.25-13.89 90.23 1.22 47.31 13.11 93.62 38.19 145.76 84.42 175.49 245.6 266.11 260.36 274.16 109.18 59.55 181.74 55.4 208.28 52.06 19.23-2.43 32.38-6.68 41.65-10.42 65.07-26.21 94.16-89.3 104.14-114.52"/><path class="cls-2" d="M385.79 14c-21 9.6-69.71 35.51-97.2 90.23-29.9 59.53-17 117.92-6.94 163.11 16.32 73.64 49.87 122.43 83.31 170 65.14 92.75 136.2 146.11 187.45 183.93 46.76 34.52 82.64 60.54 138.85 79.82 40.88 14 92.71 31.8 156.21 17.35 68.28-15.54 111-59.48 128.43-79.82"/><path class="cls-2" d="M271.24 55.6a246.5 246.5 0 0 0-41.66 65.94c-5 11.72-24 58.81-17.35 135.34 7.32 84.73 40.86 146.08 66 190.87a708.92 708.92 0 0 0 215.22 236c49.27 33.84 103.08 70 184 86.76 44.89 9.29 133.5 27.63 215.22-20.82a234 234 0 0 0 66-59"/><path class="cls-2" d="M198.34 100.71c-16.64 26.92-41.23 75.29-45.12 138.82-3.36 54.78 10.23 95.24 27.77 145.76a695 695 0 0 0 97.19 183.93 720.22 720.22 0 0 0 177 170c78.14 52.5 149.54 100.47 249.93 100.65 100.12.17 176.55-47.28 215.22-76.35"/><path class="cls-2" d="M115 180.53a408.76 408.76 0 0 0-10.41 145.76c4.74 42.86 15.23 74.11 24.3 100.64 10.77 31.53 35.83 96.91 86.78 170.05 29.54 42.4 97.92 138.32 225.63 211.69 64.12 36.84 177.29 101.86 315.88 79.82a367.68 367.68 0 0 0 76.37-20.82"/><path class="cls-2" d="M73.38 236.06c-8.3 41.59-15.8 107.11 0 183.93 2.27 11 8.67 40.06 24.3 79.82 14.46 36.8 53.52 125.27 142.32 218.63 59.21 62.26 158.52 166.67 319.35 197.81A497.72 497.72 0 0 0 726 919.72"/><path class="cls-2" d="M14.37 399.17a381.94 381.94 0 0 0 17.35 107.58c4.81 15.37 16.05 47.72 48.6 100.64 48.74 79.25 100.5 131.78 114.55 145.76 46.31 46.06 131.36 130.63 270.76 177 44.26 14.71 115.94 32.85 208.27 31.22"/><path class="cls-2" d="M7.42 558.8a898.99 898.99 0 0 0 41.66 76.35c36.83 60.39 71.66 101.53 79.84 111.06C218.3 850.35 321 904.45 337.19 912.78a672.52 672.52 0 0 0 201.33 65.94"/><path class="cls-2" d="M35.19 673.33c37 67.71 78.43 112 107.61 138.81 33.26 30.51 65.67 52 97.2 72.88 26.89 17.82 59.15 39.21 100.66 59 37.16 17.71 94.24 40.12 170.09 52.05"/><circle class="cls-1" cx="498.48" cy="516.07" r="89"/><circle cx="500.87" cy="519.14" r="78.77" style="stroke:url(#linear-gradient);stroke-miterlimit:10;fill:none"/><circle cx="500.87" cy="519.14" r="70.59" style="stroke:url(#linear-gradient-2);stroke-miterlimit:10;fill:none"/><circle cx="500.53" cy="520.17" r="63.43" style="stroke:url(#linear-gradient-3);stroke-miterlimit:10;fill:none"/><circle cx="500.53" cy="518.8" r="55.92" style="stroke:url(#linear-gradient-4);stroke-miterlimit:10;fill:none"/></svg>