<svg id="Layer_1" data-name="Layer 1" xmlns="http://www.w3.org/2000/svg" xmlns:xlink="http://www.w3.org/1999/xlink" width="996.49" height="996"><defs><linearGradient id="linear-gradient" x1="421.1" y1="495.22" x2="579.64" y2="495.22" gradientUnits="userSpaceOnUse"><stop offset="0" stop-color="#fff"/><stop offset="1"/></linearGradient><linearGradient id="linear-gradient-2" x1="429.28" y1="495.22" x2="571.45" y2="495.22" xlink:href="#linear-gradient"/><linearGradient id="linear-gradient-3" x1="436.1" y1="496.24" x2="563.95" y2="496.24" xlink:href="#linear-gradient"/><linearGradient id="linear-gradient-4" x1="443.6" y1="494.87" x2="556.45" y2="494.87" xlink:href="#linear-gradient"/><style>.cls-2{fill:#fbfbfb}</style></defs><circle cx="499.48" cy="497.65" r="498" style="fill:#232326"/><path class="cls-2" d="m541 118 28.52-38.29 9 1-6.78 63.65-9.12-1 5-46.86-24 32.09-7.65-.81-16.72-36.59-5 46.95-9.05-1 6.8-63.61 9.22 1ZM652.81 102.21l8.58 4-15 32.56c-5.75 12.47-3.4 21.16 7 25.95s18.53.94 24.28-11.53l15-32.56 8.5 3.91-15 32.56c-8 17.4-21.11 22.63-36.44 15.57s-19.94-20.46-11.93-37.85ZM736.16 205.06c-1.24 6 1 13.13 7.33 18.76a20.41 20.41 0 0 0 9.79 5.17c3.38.54 6-.18 7.91-2.34 3.42-3.86 2.45-8.69-2.84-16.3l-4.83-7.08q-10.18-14.82-1.6-24.56c7.13-8.05 19.56-7.44 29.77 1.61a29.31 29.31 0 0 1 8.41 12.13 21.58 21.58 0 0 1 1.09 12.88l-8.73-1.89c1.22-5.46-1.15-12-6.59-16.82a16.59 16.59 0 0 0-9.12-4.47 7.89 7.89 0 0 0-7.47 2.5c-3.25 3.66-2.29 8.37 3 16l4.82 7.08c6.72 9.7 7.41 18.14 1.44 24.88-7.25 8.18-20.14 7-30.88-2.47a32.34 32.34 0 0 1-9.28-13.26 23.37 23.37 0 0 1-1.14-13.74ZM797.45 296.22l-5.45-7.74 52.45-36.69 5.41 7.74ZM841 383l17.57-38.89-28.42 11.12-3.44-8.8 59.61-23.31 3.44 8.79-28.18 11L900 358.08l4.39 11.23-40.61-16.22-18.36 41.16ZM865.22 452.81l3.19 33.69-8.36.79L856 444.2l63.72-6 .89 9.4ZM917 578.88c-3.15 18.18-20.53 29.35-38.77 25.57-18.33-3.27-30.32-20.09-26.49-38.14 3.15-18.18 20.53-29.35 38.77-25.57 18.34 3.26 30.32 20.09 26.49 38.14Zm-8.59-1.65c2.81-13.18-6.35-24.82-19.69-27.22-13.28-2.73-26.1 4.68-28.39 18-2.81 13.18 6.35 24.82 19.69 27.22 13.28 2.68 26.1-4.73 28.39-18ZM855.47 713.84l16.15-30.34-17.91-9.5-14.46 27.18-7.41-3.95L846.3 670l-23.78-12.65L827 649l56.5 30.07-20.57 38.67ZM823.57 772.61l-36.87 38.3-6.05-5.82 15.16-15.75-40.07-38.57 6.55-6.8 40.07 38.57 15.16-15.76ZM687.91 869.06l30-17.42-9.7-16.71-26.93 15.61-4.21-7.26L704 827.67l-9.78-16.87-30.79 17.85-4.21-7.26 39-22.59 32.12 55.37-38.2 22.15ZM628.31 902.69l-51.59 12.84-2-8.15 21.21-5.28-13.43-54 9.17-2.29 13.43 54 21.21-5.28ZM473.69 879.63l-27 39.36-9.07-.62 4.32-63.85 9.16.62-3.18 47 22.74-33 7.67.52 18.17 35.85 3.19-47.11 9.07.61-4.32 63.86-9.25-.63ZM362.59 899.7l-8.72-3.61L367.59 863c5.25-12.68 2.56-21.27-8-25.66s-18.55-.21-23.81 12.48L322 882.9l-8.64-3.58 13.72-33.12c7.33-17.69 20.21-23.42 35.8-17s20.72 19.65 13.39 37.34ZM275.31 800.16c1-6.06-1.48-13.08-8-18.46a20.4 20.4 0 0 0-10-4.79c-3.4-.41-6 .41-7.82 2.64-3.27 4-2.11 8.78 3.47 16.18l5.09 6.89q10.75 14.42 2.55 24.48c-6.81 8.32-19.26 8.18-29.81-.47a29.31 29.31 0 0 1-8.87-11.79 21.57 21.57 0 0 1-1.6-12.84l8.79 1.55c-1 5.51 1.62 12 7.23 16.56a16.61 16.61 0 0 0 9.3 4.11 7.91 7.91 0 0 0 7.36-2.78c3.11-3.79 2-8.46-3.62-15.86l-5.09-6.89c-7.09-9.42-8.11-17.83-2.4-24.8 6.93-8.45 19.86-7.81 30.95 1.28a32.31 32.31 0 0 1 9.79 12.89 23.37 23.37 0 0 1 1.66 13.69ZM210.57 711.45l5.71 7.53-51 38.69-5.7-7.53ZM163.63 626.37l-16 39.53 28-12.21 3.78 8.66L120.68 688l-3.78-8.66 27.72-12.1-38.95-13.62-4.83-11.06 41.21 14.64 16.75-41.85ZM136.75 557.59l-4.49-33.54 8.32-1.12 5.74 42.9-63.44 8.49-1.25-9.32ZM80.16 433.63c2.44-18.29 19.37-30.12 37.74-27.06 18.45 2.55 31.08 18.9 28 37.08-2.44 18.3-19.37 30.13-37.74 27.06-18.5-2.54-31.16-18.89-28-37.08ZM88.8 435c-2.29 13.27 7.31 24.56 20.74 26.43 13.37 2.21 25.9-5.69 27.67-19.05 2.29-13.27-7.31-24.55-20.74-26.42-13.37-2.27-25.9 5.64-27.67 19.04ZM136.41 296.34l-15 30.94 18.26 8.83 13.4-27.71 7.55 3.65-13.39 27.71 24.24 11.72-4.11 8.5-57.62-27.86 19.07-39.43ZM166 236.4l35.37-39.7 6.26 5.59-14.53 16.32 41.53 37-6.28 7.06-41.53-37L172.28 242ZM297.84 134.8l-29.33 18.57 10.33 16.32 26.3-16.69 4.49 7.1-26.3 16.65 10.43 16.47 30.07-19 4.49 7.09-38.05 24.09L256 151.32l37.31-23.61ZM356.09 98.87 407.14 84l2.34 8.06-21 6.1L404 151.61l-9.07 2.63-15.52-53.4-21 6.1ZM526.85 246.12l18.87-25.31 6 .64-4.5 42.08-6-.64 3.32-31-15.94 21.22-5.06-.54-11.08-24.15-3.32 31-6-.64 4.5-42.08 6.09.65ZM600.77 235.74l5.67 2.62-9.93 21.52q-5.7 12.38 4.63 17.17t16.06-7.63l9.92-21.52 5.62 2.59-9.93 21.51c-5.3 11.49-14 15-24.09 10.28s-13.19-13.53-7.88-25ZM655.84 303.75c-.83 4 .64 8.69 4.84 12.41a13.47 13.47 0 0 0 6.47 3.42 5.34 5.34 0 0 0 5.23-1.54c2.26-2.55 1.62-5.75-1.87-10.78l-3.19-4.68c-4.49-6.54-4.86-12-1.06-16.24 4.72-5.32 12.93-4.92 19.68 1.07a19.24 19.24 0 0 1 5.56 8 14.27 14.27 0 0 1 .72 8.52l-5.77-1.25c.81-3.62-.76-7.94-4.35-11.13a11 11 0 0 0-6-2.95 5.23 5.23 0 0 0-4.94 1.64c-2.14 2.43-1.51 5.54 2 10.57l3.19 4.69c4.44 6.41 4.9 12 .94 16.45-4.79 5.4-13.31 4.65-20.41-1.65a21.27 21.27 0 0 1-6.14-8.76 15.59 15.59 0 0 1-.75-9.09ZM696.35 364.05l-3.58-5.12 34.69-24.25 3.54 5.12ZM725.14 421.42l11.62-25.7-18.76 7.34-2.28-5.81 39.42-15.41 2.27 5.82-18.63 7.28 25.39 10 2.9 7.43-26.85-10.74-12.14 27.22ZM741.12 467.58l2.11 22.28-5.53.52-2.7-28.49 42.13-4 .59 6.22ZM775.36 551c-2.09 12-13.58 19.41-25.64 16.91-12.12-2.16-20.05-13.29-17.51-25.22 2.08-12 13.57-19.41 25.63-16.91C770 527.89 777.89 539 775.36 551Zm-5.68-1.09c1.85-8.71-4.2-16.42-13-18-8.78-1.81-17.26 3.09-18.78 11.87-1.85 8.71 4.2 16.41 13 18 8.78 1.76 17.26-3.15 18.78-11.92ZM734.65 640.19l10.68-20.06-11.84-6.3-9.57 18-4.9-2.6 9.57-18-15.72-8.37 2.93-5.51 37.36 19.89-13.61 25.56ZM713.55 679l-24.38 25.33-4-3.85 10-10.42-26.47-25.46 4.33-4.5 26.5 25.5 10-10.41ZM623.85 742.79l19.86-11.51-6.41-11.06-17.81 10.33-2.78-4.8 17.81-10.33-6.47-11.15-20.36 11.81-2.79-4.81 25.76-14.94L651.9 733l-25.26 14.6ZM584.41 765l-34.12 8.48-1.29-5.35 14-3.49-8.89-35.64 6.06-1.51 8.83 35.64 14-3.48ZM482.16 749.77l-17.88 26-6-.4 2.87-42.24 6.06.42-2.11 31.09 15-21.81 5.08.35 12 23.71 2.12-31.16 6 .41-2.87 42.23-6.12-.42ZM408.73 763l-5.73-2.35 9.08-21.9c3.47-8.39 1.7-14.07-5.3-17s-12.31-.11-15.78 8.25l-9.08 21.91-5.72-2.37 9.08-21.91c4.85-11.69 13.37-15.49 23.68-11.21s13.7 13 8.86 24.7ZM351 697.2c.67-4-1-8.66-5.32-12.21a13.43 13.43 0 0 0-6.59-3.17c-2.25-.27-4 .26-5.17 1.74-2.17 2.64-1.4 5.81 2.29 10.7l3.36 4.56c4.74 6.35 5.32 11.76 1.69 16.18-4.51 5.5-12.74 5.41-19.71-.31a19.31 19.31 0 0 1-5.87-7.8 14.19 14.19 0 0 1-1-8.48l5.81 1c-.67 3.64 1.07 7.9 4.78 10.94a11 11 0 0 0 6.14 2.73 5.23 5.23 0 0 0 4.87-1.84c2.06-2.51 1.3-5.59-2.39-10.49l-3.37-4.56c-4.68-6.23-5.35-11.79-1.57-16.4 4.58-5.58 13.13-5.16 20.46.86a21.34 21.34 0 0 1 6.47 8.52 15.43 15.43 0 0 1 1.1 9ZM308.21 638.53l3.78 5-33.72 25.58-3.78-5ZM277.2 582.3l-10.61 26.15 18.49-8.08 2.5 5.73-38.79 16.9-2.5-5.73 18.34-8-25.76-9-3.19-7.27 27.25 9.68L274 575ZM259.42 536.82l-3-22.18 5.5-.73 3.79 28.37-41.95 5.6-.83-6.19ZM222 454.83c1.62-12.1 12.81-19.92 25-17.89 12.2 1.68 20.56 12.49 18.49 24.52-1.62 12.1-12.81 19.92-25 17.89-12.2-1.69-20.56-12.5-18.49-24.52Zm5.72.87c-1.52 8.78 4.83 16.24 13.71 17.48 8.84 1.46 17.13-3.76 18.3-12.59 1.52-8.78-4.83-16.24-13.71-17.48-8.84-1.47-17.13 3.76-18.3 12.59ZM259.2 364.07l-9.89 20.46 12.08 5.84 8.85-18.32 5 2.41-8.86 18.32 16 7.75-2.71 5.62-38.1-18.41 12.6-26.08ZM278.79 324.42l23.39-26.25 4.14 3.69-9.62 10.8 27.46 24.46-4.16 4.66-27.45-24.46-9.62 10.79ZM365.94 257.25l-19.4 12.28 6.84 10.79 17.39-11 3 4.69-17.39 11 6.89 10.9 19.89-12.59 3 4.69L361 303.94l-22.7-35.76 24.7-15.62ZM404.43 233.5l33.76-9.81 1.55 5.33-13.88 4 10.27 35.32-6 1.74-10.27-35.28-13.88 4ZM516.73 348.11 528 333l3.56.39-2.69 25.06-3.6-.39 2-18.45-9.46 12.63-3-.32-6.59-14.39-2 18.49-3.56-.39 2.69-25.06 3.63.39ZM560.75 342l3.38 1.56-5.92 12.81c-2.27 4.91-1.34 8.34 2.75 10.23s7.3.37 9.57-4.54l5.92-12.82 3.34 1.55-5.91 12.82c-3.17 6.84-8.33 8.9-14.36 6.11s-7.85-8.06-4.69-14.9ZM593.55 382.5a7.86 7.86 0 0 0 2.88 7.39 8 8 0 0 0 3.85 2 3.18 3.18 0 0 0 3.11-.92c1.35-1.52 1-3.42-1.11-6.42l-1.9-2.79q-4-5.83-.62-9.67c2.81-3.16 7.7-2.92 11.72.65a11.59 11.59 0 0 1 3.31 4.78 8.56 8.56 0 0 1 .42 5.07l-3.43-.75a7.11 7.11 0 0 0-2.59-6.62 6.58 6.58 0 0 0-3.59-1.77 3.12 3.12 0 0 0-2.94 1c-1.28 1.45-.91 3.3 1.17 6.3l1.9 2.79c2.64 3.81 2.91 7.14.56 9.79-2.86 3.22-7.93 2.76-12.16-1a12.88 12.88 0 0 1-3.65-5.23 9.19 9.19 0 0 1-.44-5.41ZM617.66 418.45l-2.12-3.05 20.67-14.4 2.13 3ZM634.79 452.67l6.94-15.31-11.2 4.36-1.35-3.46 23.49-9.15 1.35 3.47-11.1 4.32 15.11 6 1.73 4.42-16-6.41-7.25 16.2ZM644.28 480.14l1.24 13.27-3.29.31-1.59-17 25.1-2.35.34 3.71ZM664.6 529.84a13.09 13.09 0 1 1-10.41-15 12.59 12.59 0 0 1 10.41 15Zm-3.38-.65c1.11-5.19-2.49-9.78-7.74-10.73s-10.28 1.83-11.19 7c-1.11 5.19 2.49 9.78 7.74 10.73s10.28-1.78 11.19-7ZM640.3 583l6.38-12-7-3.77-5.76 10.77-2.92-1.61 5.71-10.69-9.35-5 1.75-3.28 22.24 11.87-8.13 15.22ZM627.71 606.08l-14.54 15.06-2.37-2.29 6-6.2-15.8-15.21 2.59-2.67L619.36 610l6-6.2ZM574.22 644l11.83-6.84-3.81-6.59-10.61 6.13-1.63-2.86 10.61-6.13-3.84-6.65-12.14 7-1.63-2.85 15.36-8.88 12.61 21.83-15.06 8.7ZM550.74 657.21l-20.33 5-.79-3.21 8.38-2-5.26-21.26 3.61-.9 5.26 21.27L550 654ZM489.83 648l-10.67 15.48-3.57-.25 1.74-25.14 3.61.25-1.29 18.52 9-13 3 .21 7.13 14.13 1.29-18.55 3.57.25-1.74 25.2-3.64-.25ZM446.06 655.87l-3.43-1.43 5.42-13q3.12-7.49-3.14-10.11c-4.16-1.73-7.3-.09-9.38 4.9l-5.42 13-3.41-1.42 5.43-13c2.89-7 8-9.21 14.11-6.66s8.14 7.76 5.24 14.72ZM411.74 616.61a7.86 7.86 0 0 0-3.15-7.28 8 8 0 0 0-3.93-1.89 3.19 3.19 0 0 0-3.08 1c-1.29 1.56-.84 3.45 1.36 6.37l2 2.72c2.81 3.79 3.15 7 1 9.64-2.69 3.27-7.59 3.21-11.74-.2a11.58 11.58 0 0 1-3.48-4.65 8.5 8.5 0 0 1-.62-5.06l3.46.62a7.09 7.09 0 0 0 2.84 6.52 6.53 6.53 0 0 0 3.66 1.63 3.1 3.1 0 0 0 2.9-1.09c1.23-1.49.78-3.33-1.41-6.25l-2-2.71c-2.78-3.72-3.17-7-.92-9.77 2.73-3.33 7.82-3.07 12.19.52a12.67 12.67 0 0 1 3.84 5.08 9.22 9.22 0 0 1 .65 5.4ZM386.31 581.63l2.24 3-20.1 15.2-2.25-3ZM367.88 548.09l-6.35 15.56 11-4.79 1.48 3.41-23.12 10-1.48-3.41 10.92-4.74-15.33-5.36-1.89-4.35 16.22 5.79 6.67-16.47ZM357.34 521l-1.74-13.21 3.27-.43 2.23 16.9-25 3.29-.48-3.68ZM335.15 472.09a13.09 13.09 0 1 1 11 14.63 12.59 12.59 0 0 1-11-14.63Zm3.4.53c-.91 5.22 2.86 9.67 8.14 10.42s10.21-2.22 10.91-7.47c.92-5.23-2.85-9.68-8.14-10.43s-10.2 2.22-10.91 7.48ZM357.39 418.08l-5.91 12.17 7.19 3.49 5.29-10.9 3 1.44-5.3 10.91 9.54 4.63-1.62 3.35-22.68-11 7.54-15.52ZM369.1 394.49l14-15.6 2.46 2.2-5.74 6.42 16.33 14.6-2.48 2.77-16.32-14.6-5.74 6.42ZM421.11 354.57l-11.57 7.29 4.06 6.44 10.4-6.54 1.76 2.8-10.37 6.54 4.1 6.49 11.85-7.47 1.76 2.8-15 9.45-13.43-21.32 14.71-9.27ZM444.1 340.47l20.12-5.8.91 3.18-8.27 2.38 6.07 21-3.58 1-6.06-21-8.29 2.42Z"/><circle cx="497.98" cy="492.15" r="89" style="fill:#ecebed"/><circle cx="500.37" cy="495.22" r="78.77" style="stroke:url(#linear-gradient);fill:none;stroke-miterlimit:10"/><circle cx="500.37" cy="495.22" r="70.59" style="stroke:url(#linear-gradient-2);fill:none;stroke-miterlimit:10"/><circle cx="500.03" cy="496.24" r="63.43" style="stroke:url(#linear-gradient-3);fill:none;stroke-miterlimit:10"/><circle cx="500.03" cy="494.87" r="55.92" style="stroke:url(#linear-gradient-4);fill:none;stroke-miterlimit:10"/></svg>