<svg id="Layer_1" data-name="Layer 1" xmlns="http://www.w3.org/2000/svg" xmlns:xlink="http://www.w3.org/1999/xlink" width="982.74" height="983"><defs><linearGradient id="linear-gradient" x1="414.49" y1="460.57" x2="573.03" y2="460.57" gradientUnits="userSpaceOnUse"><stop offset="0" stop-color="#fff"/><stop offset="1"/></linearGradient><linearGradient id="linear-gradient-2" x1="422.67" y1="460.57" x2="564.85" y2="460.57" xlink:href="#linear-gradient"/><linearGradient id="linear-gradient-3" x1="429.49" y1="461.59" x2="557.34" y2="461.59" xlink:href="#linear-gradient"/><linearGradient id="linear-gradient-4" x1="437" y1="460.23" x2="549.84" y2="460.23" xlink:href="#linear-gradient"/></defs><circle cx="490.24" cy="491.5" r="491.5" style="fill:#decffb"/><circle cx="491.37" cy="457.5" r="89" style="fill:#fff"/><circle cx="493.76" cy="460.57" r="78.77" style="stroke:url(#linear-gradient);fill:none;stroke-miterlimit:10"/><circle cx="493.76" cy="460.57" r="70.59" style="stroke:url(#linear-gradient-2);fill:none;stroke-miterlimit:10"/><circle cx="493.42" cy="461.59" r="63.43" style="stroke:url(#linear-gradient-3);fill:none;stroke-miterlimit:10"/><circle cx="493.42" cy="460.23" r="55.92" style="stroke:url(#linear-gradient-4);fill:none;stroke-miterlimit:10"/><path d="M487.25 75.71a415.5 415.5 0 0 1 161.69 798.15 415.51 415.51 0 0 1-323.38-765.51 412.79 412.79 0 0 1 161.69-32.64m0-1c-230 0-416.39 186.43-416.39 416.4S257.28 907.5 487.25 907.5s416.4-186.42 416.4-416.39-186.43-416.4-416.4-416.4Z" style="fill:#753b8e"/><path d="M233.09 278.33c85.72 0 199.83 26.81 313.08 73.56 102.72 42.4 193.51 96.25 255.64 151.63 30.16 26.88 51.9 52.65 64.61 76.58 13.07 24.62 16 46.17 8.57 64.06-6.58 16-21.1 28.26-43.14 36.58-21.45 8.09-49.37 12.19-83 12.19-85.73 0-199.85-26.81-313.1-73.56C224 532 76.49 400.85 106.93 327.11c6.59-16 21.1-28.27 43.15-36.58 21.44-8.09 49.36-12.2 83-12.2m0-1c-66.53 0-113.37 16.22-127.06 49.39C75.3 401.1 222.77 532.54 435.37 620.3c117.79 48.62 230.84 73.63 313.48 73.63 66.53 0 113.37-16.22 127.07-49.39 30.7-74.37-116.76-205.81-329.37-293.54-117.79-48.63-230.83-73.64-313.48-73.64Z" style="fill:#b690c1"/></svg>